<svg width="1800" height="1125" viewBox="0 0 1800 1125" fill="none" xmlns="http://www.w3.org/2000/svg">
  <defs>
    <linearGradient id="bg" x1="0" y1="0" x2="1800" y2="1125" gradientUnits="userSpaceOnUse">
      <stop stop-color="#101417"/>
      <stop offset="0.48" stop-color="#152026"/>
      <stop offset="1" stop-color="#262218"/>
    </linearGradient>
    <linearGradient id="screen" x1="520" y1="210" x2="1540" y2="900" gradientUnits="userSpaceOnUse">
      <stop stop-color="#172126"/>
      <stop offset="0.62" stop-color="#0c1114"/>
      <stop offset="1" stop-color="#14100c"/>
    </linearGradient>
    <linearGradient id="accent" x1="0" y1="0" x2="1" y2="1">
      <stop stop-color="#21d0b2"/>
      <stop offset="1" stop-color="#d28a2b"/>
    </linearGradient>
    <filter id="shadow" x="370" y="140" width="1280" height="840" filterUnits="userSpaceOnUse" color-interpolation-filters="sRGB">
      <feDropShadow dx="0" dy="42" stdDeviation="42" flood-color="#000000" flood-opacity="0.38"/>
    </filter>
    <filter id="soft" x="-20%" y="-20%" width="140%" height="140%">
      <feGaussianBlur stdDeviation="18"/>
    </filter>
  </defs>

  <rect width="1800" height="1125" fill="url(#bg)"/>
  <path d="M0 807C224 742 411 740 638 795C878 853 1071 895 1329 824C1520 771 1664 760 1800 790V1125H0V807Z" fill="#F4F1EA" fill-opacity="0.06"/>
  <g opacity="0.18">
    <path d="M0 240H1800M0 380H1800M0 520H1800M0 660H1800M0 800H1800" stroke="#F8F0E4" stroke-opacity="0.25"/>
    <path d="M260 0V1125M460 0V1125M660 0V1125M860 0V1125M1060 0V1125M1260 0V1125M1460 0V1125M1660 0V1125" stroke="#F8F0E4" stroke-opacity="0.18"/>
  </g>

  <g filter="url(#soft)" opacity="0.5">
    <ellipse cx="1290" cy="345" rx="320" ry="190" fill="#0F766E" fill-opacity="0.35"/>
    <ellipse cx="1510" cy="735" rx="250" ry="170" fill="#C67A24" fill-opacity="0.22"/>
  </g>

  <g filter="url(#shadow)">
    <rect x="450" y="170" width="1180" height="760" rx="34" fill="#0C1012"/>
    <rect x="472" y="196" width="1136" height="708" rx="22" fill="url(#screen)" stroke="#FFFFFF" stroke-opacity="0.12" stroke-width="2"/>
    <rect x="472" y="196" width="1136" height="62" rx="22" fill="#20292E"/>
    <circle cx="512" cy="228" r="9" fill="#E66B54"/>
    <circle cx="542" cy="228" r="9" fill="#D7A246"/>
    <circle cx="572" cy="228" r="9" fill="#55B978"/>
    <rect x="690" y="215" width="456" height="26" rx="7" fill="#0F1417"/>
    <text x="918" y="233" text-anchor="middle" fill="#AEB8BC" font-size="15" font-weight="600">osx-ide / agentic-architecture.md</text>

    <rect x="492" y="278" width="206" height="596" fill="#12191D"/>
    <text x="520" y="322" fill="#F8F0E4" font-size="16" font-weight="600">workspace</text>
    <text x="520" y="366" fill="#87D9CA" font-size="15">▾ Services</text>
    <text x="540" y="402" fill="#B9C3C7" font-size="14">LocalPipeline</text>
    <text x="540" y="434" fill="#B9C3C7" font-size="14">OpenRouterAI</text>
    <text x="540" y="466" fill="#B9C3C7" font-size="14">Index</text>
    <text x="520" y="524" fill="#87D9CA" font-size="15">▾ Components</text>
    <text x="540" y="560" fill="#B9C3C7" font-size="14">CodeEditorView</text>
    <text x="540" y="592" fill="#B9C3C7" font-size="14">AIChatPanel</text>
    <rect x="512" y="646" width="160" height="34" rx="7" fill="#20343A" stroke="#2AAE9F" stroke-opacity="0.5"/>
    <text x="532" y="668" fill="#D4F7E9" font-size="13">index: ready</text>

    <rect x="718" y="278" width="534" height="596" fill="#0B1012"/>
    <text x="752" y="326" fill="#71838B" font-size="15">1</text>
    <text x="792" y="326" fill="#D4F7E9" font-size="17">func routeAIRequest(_ task: Task) async throws {</text>
    <text x="752" y="366" fill="#71838B" font-size="15">2</text>
    <text x="820" y="366" fill="#8EE6D5" font-size="17">if task.latencyCritical {</text>
    <rect x="790" y="388" width="388" height="34" rx="6" fill="#123A38"/>
    <text x="752" y="412" fill="#71838B" font-size="15">3</text>
    <text x="848" y="412" fill="#F8F0E4" font-size="17">return try await localFIM.complete(task)</text>
    <text x="752" y="452" fill="#71838B" font-size="15">4</text>
    <text x="820" y="452" fill="#8EE6D5" font-size="17">}</text>
    <text x="752" y="492" fill="#71838B" font-size="15">5</text>
    <text x="820" y="492" fill="#D8B56D" font-size="17">let context = index.bestContextPack(for: task)</text>
    <text x="752" y="532" fill="#71838B" font-size="15">6</text>
    <text x="820" y="532" fill="#F8F0E4" font-size="17">return try await cloudAgent.execute(task, context)</text>
    <text x="752" y="572" fill="#71838B" font-size="15">7</text>
    <text x="792" y="572" fill="#D4F7E9" font-size="17">}</text>
    <rect x="790" y="642" width="338" height="42" rx="7" fill="#241F16" stroke="#C67A24" stroke-opacity="0.5"/>
    <text x="814" y="669" fill="#FAD79C" font-size="15">ghost text: local, cancellable, private</text>
    <rect x="790" y="704" width="278" height="42" rx="7" fill="#122833" stroke="#2F6F9F" stroke-opacity="0.45"/>
    <text x="814" y="731" fill="#BFE6FF" font-size="15">agent: plan → edit → verify</text>

    <rect x="1272" y="278" width="314" height="596" fill="#12191D"/>
    <text x="1302" y="326" fill="#F8F0E4" font-size="16" font-weight="600">AI routing</text>
    <rect x="1302" y="358" width="244" height="54" rx="8" fill="#0F766E" fill-opacity="0.22" stroke="#31D3BE" stroke-opacity="0.55"/>
    <text x="1322" y="390" fill="#D4F7E9" font-size="15">local FIM model</text>
    <rect x="1302" y="430" width="244" height="54" rx="8" fill="#2F6F9F" fill-opacity="0.18" stroke="#7CC8ED" stroke-opacity="0.42"/>
    <text x="1322" y="462" fill="#DFF3FF" font-size="15">OpenRouter</text>
    <rect x="1302" y="502" width="244" height="54" rx="8" fill="#C67A24" fill-opacity="0.16" stroke="#D8A45E" stroke-opacity="0.45"/>
    <text x="1322" y="534" fill="#FDE2AF" font-size="15">Alibaba / Kilo / DeepSeek</text>

    <text x="1302" y="628" fill="#F8F0E4" font-size="16" font-weight="600">context engine</text>
    <path d="M1340 706C1340 671 1368 643 1403 643H1446C1481 643 1509 671 1509 706C1509 741 1481 769 1446 769H1403C1368 769 1340 741 1340 706Z" fill="#0B1012" stroke="#87D9CA" stroke-width="2"/>
    <circle cx="1405" cy="705" r="18" fill="#0F766E"/>
    <circle cx="1450" cy="682" r="12" fill="#C67A24"/>
    <circle cx="1464" cy="728" r="14" fill="#2F6F9F"/>
    <path d="M1405 705L1450 682M1405 705L1464 728M1450 682L1464 728" stroke="#D4F7E9" stroke-opacity="0.75" stroke-width="2"/>
    <text x="1322" y="824" fill="#AEB8BC" font-size="14">files + symbols + chunks + embeddings</text>
  </g>

  <g transform="translate(220 820)">
    <rect width="342" height="86" rx="14" fill="#FFF8EC" fill-opacity="0.94"/>
    <rect x="16" y="16" width="54" height="54" rx="10" fill="url(#accent)"/>
    <path d="M43 27L57 43L43 59L29 43L43 27Z" fill="#101417"/>
    <text x="88" y="38" fill="#101417" font-size="22" font-weight="800">local-first AI</text>
    <text x="88" y="63" fill="#65717A" font-size="16" font-weight="600">fast when offline, powerful online</text>
  </g>
</svg>
